# xmcd
#
# Track frame offsets:
#	150
#	16575
#	30069
#	41457
#	57957
#	73932
#	91107
#	105882
#	121857
#	141422
#	157847
#	171341
#	182729
#	199229
#	215204
#	232379
#	247154
#	263129
#
# Disc length: 3769 seconds
#
# Revision: 2
# Processed by: cddbd v1.5.2PL0 Copyright (c) Steve Scherf et al.
# Submitted via: audiograbber 1.83.01
#
DISCID=f80eb712
DTITLE=Various Artist - PHN0109
DYEAR=2001
DGENRE=Karaoke
TTITLE0=Phil Vassar - Six Pack Summer
TTITLE1=Toby Keith - I'm Just Talkin' About Tonight
TTITLE2=Neal Coty - Right Down Through The Middle Of Us
TTITLE3=Travis Tritt - Love Of A Woman
TTITLE4=Trick Pony - On A Night Like This
TTITLE5=Chely Wright - Never Love You Enough
TTITLE6=Kinleys, The - You're Still Here
TTITLE7=Tammy Cochran - Angels In Waiting
TTITLE8=Mark Wills - Loving Every Minute
TTITLE9=Phil Vassar - Six Pack Summer (Vocal)
TTITLE10=Toby Keith - I'm Just Talkin' About Tonight (Vocal)
TTITLE11=Neal Coty - Right Down Through The Middle Of Us (Vocal)
TTITLE12=Travis Tritt - Love Of A Woman (Vocal)
TTITLE13=Trick Pony - On A Night Like This (Vocal)
TTITLE14=Chely Wright - Never Love You Enough (Vocal)
TTITLE15=Kinleys, The - You're Still Here (Vocal)
TTITLE16=Tammy Cochran - Angels In Waiting (Vocal)
TTITLE17=Mark Wills - Loving Every Minute (Vocal)
EXTD=fixed vocal listings
EXTT0=
EXTT1=
EXTT2=
EXTT3=
EXTT4=
EXTT5=
EXTT6=
EXTT7=
EXTT8=
EXTT9=
EXTT10=
EXTT11=
EXTT12=
EXTT13=
EXTT14=
EXTT15=
EXTT16=
EXTT17=
PLAYORDER=
